<svg xmlns="http://www.w3.org/2000/svg">
<defs>
<font id="LTEnergyVF" horiz-adv-x="1016" >
  <font-face 
    font-family="LT Energy VF"
    font-weight="700"
    font-stretch="normal"
    units-per-em="2048"
    panose-1="2 0 8 0 0 0 0 0 0 0"
    ascent="1638"
    descent="-410"
    x-height="1023"
    cap-height="1383"
    bbox="-141 -360 2107 1832"
    underline-thickness="150"
    underline-position="-442"
    unicode-range="U+0020-F002"
  />
<missing-glyph horiz-adv-x="1600" 
d="M69 1340q0 19 7.5 36t20.5 30t30 20.5t36 7.5h1279q19 0 36 -7.5t30 -20.5t20.5 -30t7.5 -36v-230q0 -19 -7.5 -36t-20.5 -30t-30 -20.5t-36 -7.5h-305q-11 0 -18 -6.5t-7 -17.5v-898q0 -19 -7.5 -36t-20.5 -30t-30 -20.5t-36 -7.5h-30q-14 0 -24.5 10.5t-10.5 24.5
t10.5 24.5t24.5 10.5h30q24 0 24 24v898q0 40 27.5 67t67.5 27h305q24 0 24 24v230q0 24 -24 24h-1279q-24 0 -24 -24v-230q0 -11 6.5 -17.5t17.5 -6.5h306q41 0 67.5 -26.5t26.5 -67.5v-82q0 -14 -10.5 -24.5t-24.5 -10.5t-24.5 10.5t-10.5 24.5v82q0 24 -24 24h-306
q-19 0 -36 7.5t-30 20.5t-20.5 30t-7.5 36v230zM493 757q0 14 10.5 24.5t24.5 10.5q15 0 25 -10t10 -25v-663q0 -11 6.5 -17.5t17.5 -6.5h248q15 0 25 -10t10 -25q0 -14 -10.5 -24.5t-24.5 -10.5h-248q-19 0 -36 7.5t-30 20.5t-20.5 30t-7.5 36v663zM736 848q0 60 63 61
q29 0 46 -16t17 -45q0 -58 -63 -61q-28 0 -45.5 16t-17.5 45zM738 692q0 5 1 7v1q2 5 5 6q6 3 18 11.5t32 21.5l2 7l-53 2l-4 3l-2 4l1 19l4 3q47 0 74.5 -0.5t37.5 -1.5q4 0 6 -7q1 -2 0.5 -5.5t-1.5 -6.5l-1 -5q0 -4 -3 -4l-2 -2q-21 -21 -36 -28.5t-17 -9.5l4 -3h51l4 -2
l1 -3q1 -2 1 -6l-1 -13l-2 -4l-5 -2l-110 1l-4 3l-2 4zM737 324l1 13l3 4l4 2l110 -1l4 -2q2 -4 2 -41q0 -19 -12 -32.5t-32 -13.5t-31.5 14t-11.5 34v9l-5 3h-26l-5 5q-1 2 -1 6zM737 232q0 4 1 6l3 3q5 1 19 1.5t39 0.5h36.5t19.5 -1q4 0 5 -3t1 -8l-1 -62l-2 -4l-5 -2
l-19 1l-3 4v40l-3 5h-11l-3 -5l-1 -41l-4 -3l-11 1q-13 2 -13 12q-1 5 -1 13.5v19.5l-5 4l-8 -1l-4 -5v-39l-2 -4l-3 -1q-2 -1 -6 -1l-13 1l-4 3l-2 4v61zM736 628v11q0 2 0.5 3.5t0.5 3.5l2 7q2 10 11 10h4l9 -1q4 0 6 -7v-4l-3 -21l2 -15l7 -5q5 0 9 16q4 15 13 26t26 11

<glyph glyph-name=".notdef" horiz-adv-x="1600" 
d="M69 1340q0 19 7.5 36t20.5 30t30 20.5t36 7.5h1279q19 0 36 -7.5t30 -20.5t20.5 -30t7.5 -36v-230q0 -19 -7.5 -36t-20.5 -30t-30 -20.5t-36 -7.5h-305q-11 0 -18 -6.5t-7 -17.5v-898q0 -19 -7.5 -36t-20.5 -30t-30 -20.5t-36 -7.5h-30q-14 0 -24.5 10.5t-10.5 24.5
t10.5 24.5t24.5 10.5h30q24 0 24 24v898q0 40 27.5 67t67.5 27h305q24 0 24 24v230q0 24 -24 24h-1279q-24 0 -24 -24v-230q0 -11 6.5 -17.5t17.5 -6.5h306q41 0 67.5 -26.5t26.5 -67.5v-82q0 -14 -10.5 -24.5t-24.5 -10.5t-24.5 10.5t-10.5 24.5v82q0 24 -24 24h-306
q-19 0 -36 7.5t-30 20.5t-20.5 30t-7.5 36v230zM493 757q0 14 10.5 24.5t24.5 10.5q15 0 25 -10t10 -25v-663q0 -11 6.5 -17.5t17.5 -6.5h248q15 0 25 -10t10 -25q0 -14 -10.5 -24.5t-24.5 -10.5h-248q-19 0 -36 7.5t-30 20.5t-20.5 30t-7.5 36v663zM736 848q0 60 63 61
q29 0 46 -16t17 -45q0 -58 -63 -61q-28 0 -45.5 16t-17.5 45zM738 692q0 5 1 7v1q2 5 5 6q6 3 18 11.5t32 21.5l2 7l-53 2l-4 3l-2 4l1 19l4 3q47 0 74.5 -0.5t37.5 -1.5q4 0 6 -7q1 -2 0.5 -5.5t-1.5 -6.5l-1 -5q0 -4 -3 -4l-2 -2q-21 -21 -36 -28.5t-17 -9.5l4 -3h51l4 -2
l1 -3q1 -2 1 -6l-1 -13l-2 -4l-5 -2l-110 1l-4 3l-2 4zM737 324l1 13l3 4l4 2l110 -1l4 -2q2 -4 2 -41q0 -19 -12 -32.5t-32 -13.5t-31.5 14t-11.5 34v9l-5 3h-26l-5 5q-1 2 -1 6zM737 232q0 4 1 6l3 3q5 1 19 1.5t39 0.5h36.5t19.5 -1q4 0 5 -3t1 -8l-1 -62l-2 -4l-5 -2
l-19 1l-3 4v40l-3 5h-11l-3 -5l-1 -41l-4 -3l-11 1q-13 2 -13 12q-1 5 -1 13.5v19.5l-5 4l-8 -1l-4 -5v-39l-2 -4l-3 -1q-2 -1 -6 -1l-13 1l-4 3l-2 4v61zM736 628v11q0 2 0.5 3.5t0.5 3.5l2 7q2 10 11 10h4l9 -1q4 0 6 -7v-4l-3 -21l2 -15l7 -5q5 0 9 16q4 15 13 26t26 11
q20 0 29.5 -13t9.5 -32q0 -23 -7 -30q-2 -2 -9 -2l-2 1q-3 0 -5 1l-4 1q-1 0 -4 3q-1 2 -1 6l2 20l-2 12l-6 3q-4 0 -8 -16q-5 -16 -13 -26.5t-26 -10.5q-20 0 -30.5 14.5t-10.5 33.5zM738 418l4 3h33q3 1 21.5 9t52.5 25q2 1 5 1q6 0 6 -7l1 -9q0 -4 -1 -6l-1 -3l-4 -3
l-42 -22l38 -20q10 -5 10 -15l-1 -18l-4 -3l-75 40l-38 2l-4 3l-2 4zM737 516l1 15l4 3l86 1l3 5v25l5 5q2 1 6 1l13 -1l4 -2l2 -5l-1 -75q0 -11 -4.5 -14.5t-14.5 -3.5h-1q-8 0 -8 6q-2 10 -2 25l-4 3l-79 1q-2 0 -3 0.5t-2 0.5q-2 1 -2.5 2t-1.5 2q-1 2 -1 6zM737 952
l1 13l3 4q2 2 34 2q3 1 21.5 7.5t50.5 24.5q4 2 6 2q6 0 6 -9v-12q0 -2 -2 -4q-1 -1 -2 -1.5t-2 -1.5l-40 -21q14 -8 24.5 -13.5t15.5 -8.5q3 -2 4.5 -5t2.5 -6v-3q1 -3 -1 -10q-1 -3 -6 -5q-3 0 -4 1q-4 0 -5 1l-49 24.5t-20 9.5h-32l-5 5q-1 2 -1 6zM738 1071l3 4l4 2
l110 -1l4 -2l1 -8q0 -19 -19 -19l-70 -1l-4 -4v-45l-2 -4l-3 -1q-2 -1 -6 -1l-13 1l-4 3l-2 4zM768 848q0 -28 31 -31q14 0 23 9t9 22q0 14 -9 22.5t-23 8.5q-28 0 -31 -31zM804 299q0 -13 14 -16q13 0 13 16q0 10 -2 12t-11 2q-14 0 -14 -5v-9z" />
    <glyph glyph-name=".null" horiz-adv-x="0" 
 />
    <glyph glyph-name="nonmarkingreturn" horiz-adv-x="682" 
 />
    <glyph glyph-name="space" unicode=" " horiz-adv-x="371" 
 />
    <glyph glyph-name="space" unicode="&#xa0;" horiz-adv-x="371" 
 />
    <glyph glyph-name="exclam" unicode="!" horiz-adv-x="525" 
d="M101 1v205h326v-205h-326zM101 1383h326v-803q0 -244 -223 -244h-103v1047z" />
    <glyph glyph-name="quotedbl" unicode="&#x22;" horiz-adv-x="938" 
d="M101 926v455h326v-207q0 -123 -81.5 -177t-244.5 -71zM521 926v455h326v-207q0 -123 -81.5 -177t-244.5 -71z" />
    <glyph glyph-name="numbersign" unicode="#" horiz-adv-x="1199" 
d="M281 984v401h231v-401h169v399h231v-399h221v-226h-221v-124h221v-226h-221v-408h-231v408h-169v-406h-231v406h-220v226h220v124h-220v226h220zM512 758v-124h169v124h-169z" />
    <glyph glyph-name="dollar" unicode="$" horiz-adv-x="1014" 
d="M412 1202v179h206v-179h13q147 0 224 -80t77 -211v-58h-325v68q0 58 -25 88t-67.5 30t-67.5 -30t-25 -88q0 -97 112 -132l143 -45q255 -80 255 -283q0 -121 -77 -201t-224 -80h-13v-180h-206v180h-14q-147 0 -224 80t-77 211v58h325v-58q0 -58 25 -93t67.5 -35t67.5 35
t25 93q0 115 -112 150l-143 45q-255 80 -255 275q0 111 77 186t224 75h14z" />
    <glyph glyph-name="percent" unicode="%" horiz-adv-x="1600" 
d="M1013 1293h326l-751 -1292h-326zM1479 526q59 -61 59 -168v-129q0 -107 -59 -168t-172 -61h-124q-113 0 -172 61t-59 168v129q0 107 59 168t172 61h124q113 0 172 -61zM1292.5 171q17.5 26 17.5 68v118q0 42 -17.5 64t-47.5 22t-47.5 -22t-17.5 -64v-118q0 -42 17.5 -68
t47.5 -26t47.5 26zM593 1232q59 -61 59 -168v-129q0 -107 -59 -168t-172 -61h-124q-113 0 -172 61t-59 168v129q0 107 59 168t172 61h124q113 0 172 -61zM406.5 876.5q17.5 26.5 17.5 67.5v119q0 42 -17.5 63.5t-47.5 21.5t-47.5 -21.5t-17.5 -63.5v-119q0 -41 17.5 -67.5
t47.5 -26.5t47.5 26.5z" />
    <glyph glyph-name="ampersand" unicode="&#x26;" horiz-adv-x="1118" 
d="M932 488v-196q0 -131 -77 -211t-224 -80h-233q-147 0 -224 80t-77 211v140q0 153 139 215v12q-139 62 -139 215v128q0 131 77 211t224 80h233q147 0 224 -80t77 -211v-91h-325v101q0 58 -25 88t-67.5 30t-67.5 -30t-25 -88v-158q0 -58 25 -93t68 -35h34v-146h-34
q-43 0 -68 -35t-25 -93v-170q0 -58 25 -88t67.5 -30t67.5 30t25 88v262q0 182 166 182h305l-19 -162h-83q-44 0 -44 -76z" />
    <glyph glyph-name="quotesingle" unicode="'" horiz-adv-x="525" 
d="M101 926v455h326v-207q0 -123 -81.5 -177t-244.5 -71z" />
    <glyph glyph-name="parenleft" unicode="(" horiz-adv-x="700" 
d="M609 1382v-193h-91q-92 0 -92 -149v-698q0 -149 92 -149h91v-193h-164q-344 0 -344 346v691q0 345 344 345h164z" />
    <glyph glyph-name="parenright" unicode=")" horiz-adv-x="700" 
d="M235 1382q344 0 344 -345v-691q0 -346 -344 -346h-164v193h92q91 0 91 149v698q0 149 -91 149h-92v193h164z" />
    <glyph glyph-name="asterisk" unicode="*" horiz-adv-x="800" 
d="M507 1381l-14 -193l183 72l69 -193l-195 -46l145 -151l-177 -120l-120 175l-120 -175l-177 120l145 151l-195 46l69 193l183 -72l-14 193h218z" />
    <glyph glyph-name="plus" unicode="+" horiz-adv-x="1101" 
d="M696 625h301v-226h-301v-288h-297v288h-301v226h301v287h297v-287z" />
    <glyph glyph-name="comma" unicode="," horiz-adv-x="525" 
d="M101 -249v455h326v-207q0 -123 -81.5 -177t-244.5 -71z" />
    <glyph glyph-name="hyphen" unicode="-" horiz-adv-x="801" 
d="M702 625v-226h-604v226h604z" />
    <glyph glyph-name="hyphen" unicode="&#xad;" horiz-adv-x="801" 
d="M702 625v-226h-604v226h604z" />
    <glyph glyph-name="period" unicode="." horiz-adv-x="525" 
d="M101 1v205h326v-205h-326z" />
    <glyph glyph-name="slash" unicode="/" horiz-adv-x="946" 
d="M611 1383h326l-600 -1743h-326z" />
    <glyph glyph-name="zero" unicode="0" 
d="M855 1213q77 -80 77 -211v-710q0 -131 -77 -211t-224 -80h-233q-147 0 -224 80t-77 211v710q0 131 77 211t224 80h233q147 0 224 -80zM582 199q25 35 25 93v720q0 58 -25 88t-67.5 30t-67.5 -30t-25 -88v-720q0 -58 25 -93t67.5 -35t67.5 35z" />
    <glyph glyph-name="one" unicode="1" 
d="M452 1293h266v-1293h-326v1076h-197q7 88 63.5 150t193.5 67z" />
    <glyph glyph-name="two" unicode="2" 
d="M607 890v112q0 68 -25 98t-67.5 30t-67.5 -30t-25 -88v-111h-325v101q0 131 77 211t224 80h233q147 0 224 -80t77 -221v-112q0 -188 -198 -317l-200 -136q-112 -87 -112 -172q1 -42 25.5 -66.5t67.5 -24.5h397v-163h-624q-87 0 -139 58t-52 153q0 213 255 379l188 134
q67 52 67 165z" />
    <glyph glyph-name="three" unicode="3" 
d="M400 580v146h95q52 0 82 35t30 93v158q0 58 -25 88t-67.5 30t-67.5 -30t-25 -88v-101h-325v91q0 131 77 211t224 80h233q147 0 224 -80t77 -211v-128q0 -153 -139 -215v-12q139 -62 139 -215v-140q0 -131 -77 -211t-224 -80h-233q-147 0 -224 80t-77 211v117h325v-127
q0 -58 25 -88t67.5 -30t67.5 30t25 88v170q0 58 -30 93t-82 35h-95z" />
    <glyph glyph-name="four" unicode="4" 
d="M877 617h125v-163h-125v-454h-326v454h-123q-197 0 -294 90t-97 221v529h325v-539q0 -58 35 -98t88 -40h66v677h326v-677z" />
    <glyph glyph-name="five" unicode="5" 
d="M510 816h95q132 0 229.5 -70.5t97.5 -223.5v-230q0 -131 -77 -211t-224 -80h-233q-147 0 -224 80t-77 211v137h325v-147q0 -58 25 -88t67.5 -30t67.5 30t25 88v260q0 58 -30 93t-82 35h-203q-164 0 -164 142v481h776v-183h-450v-227q0 -67 56 -67z" />
    <glyph glyph-name="six" unicode="6" 
d="M962 374v-82q0 -131 -77 -211t-224 -80h-263q-147 0 -224 80t-77 211v710q0 131 77 211t224 80h233q147 0 224 -80t77 -211v-102h-325v112q0 58 -25 88t-67.5 30t-67.5 -30t-25 -88v-216q540 0 540 -422zM422 292q0 -58 30 -93t77.5 -35t77.5 35t30 93v94q0 263 -215 284
v-378z" />
    <glyph glyph-name="seven" unicode="7" 
d="M227 1l305 1001q9 32 9 58q-1 23 -23.5 36.5t-72.5 13.5h-360v183h852l-356 -1292h-354z" />
    <glyph glyph-name="eight" unicode="8" 
d="M607 844v168q0 58 -25 88t-67.5 30t-67.5 -30t-25 -88v-168q0 -58 25 -93t67.5 -35t67.5 35t25 93zM422 462v-180q0 -58 25 -88t67.5 -30t67.5 30t25 88v180q0 58 -25 93t-67.5 35t-67.5 -35t-25 -93zM793 647q139 -62 139 -215v-140q0 -131 -77 -211t-224 -80h-233
q-147 0 -224 80t-77 211v140q0 153 139 215v12q-139 62 -139 215v128q0 131 77 211t224 80h233q147 0 224 -80t77 -211v-128q0 -153 -139 -215v-12z" />
    <glyph glyph-name="nine" unicode="9" 
d="M67 920v82q0 131 77 211t224 80h263q147 0 224 -80t77 -211v-710q0 -131 -77 -211t-224 -80h-233q-147 0 -224 80t-77 211v102h325v-112q0 -58 25 -88t67.5 -30t67.5 30t25 88v256q-540 0 -540 382zM607 1002q0 58 -30 93t-77.5 35t-77.5 -35t-30 -93v-93
q0 -224 215 -245v338z" />
    <glyph glyph-name="colon" unicode=":" horiz-adv-x="525" 
d="M101 1v205h326v-205h-326zM101 818v205h326v-205h-326z" />
    <glyph glyph-name="semicolon" unicode=";" horiz-adv-x="525" 
d="M101 -249v455h326v-207q0 -123 -81.5 -177t-244.5 -71zM101 818v205h326v-205h-326z" />
    <glyph glyph-name="semicolon" unicode="&#x37e;" horiz-adv-x="525" 
d="M101 -249v455h326v-207q0 -123 -81.5 -177t-244.5 -71zM101 818v205h326v-205h-326z" />
    <glyph glyph-name="less" unicode="&#x3c;" horiz-adv-x="1000" 
d="M938 143l-829 328v78q0 142 146 211l683 287v-314l-402 -172v-13l402 -159v-246z" />
    <glyph glyph-name="equal" unicode="=" horiz-adv-x="1000" 
d="M902 895v-226h-804v226h804zM902 545v-226h-804v226h804z" />
    <glyph glyph-name="greater" unicode="&#x3e;" horiz-adv-x="1000" 
d="M109 1047l829 -328v-78q0 -142 -146 -211l-683 -287v314l402 172v13l-402 159v246z" />
    <glyph glyph-name="question" unicode="?" horiz-adv-x="1000" 
d="M205 1v205h326v-205h-326zM531 540v-42q0 -162 -223 -162h-103v165q0 165 133 255l133 90q112 70 112 182q0 91 -60 141t-172 50h-224v163h350q177 0 304 -80t127 -265q0 -186 -198 -315q-179 -122 -179 -182z" />
    <glyph glyph-name="at" unicode="@" horiz-adv-x="1463" 
d="M798 533v324q0 42 -18 63.5t-49 21.5t-49 -21.5t-18 -63.5v-324q0 -41 18 -66.5t49 -25.5t49 25.5t18 66.5zM1190 466v595q0 88 -37.5 134t-148.5 46h-546q-111 0 -148.5 -46t-37.5 -134v-739q0 -88 37.5 -133.5t148.5 -45.5h673l-30 -142h-690q-153 0 -233.5 90
t-80.5 221v759q0 131 80.5 221t233.5 90h640q153 0 233.5 -90t80.5 -221v-747h-718q-106 0 -161 57.5t-55 151.5v317q0 94 55 151.5t161 57.5h168q106 0 161 -57.5t55 -151.5v-384h159z" />
    <glyph glyph-name="A" unicode="A" horiz-adv-x="1101" 
d="M687 675v376q0 68 -35 118t-97 50h-133v-544h265zM1012 1h-325v501h-265v-501h-325v1381h614q147 0 224 -80t77 -211v-1090z" />
    <glyph glyph-name="B" unicode="B" horiz-adv-x="1101" 
d="M422 814h103q62 0 97 50t35 118v79q0 68 -35 113t-97 45h-103v-405zM717 471q0 98 -50 148t-130 50h-115v-328q0 -88 33.5 -133t109.5 -45q82 0 117 45t35 133v130zM97 1382h484q187 0 294 -85t107 -216v-69q0 -96 -37 -156t-131 -93v-8q116 -30 172 -111t56 -193v-120
q0 -151 -107 -241t-294 -90h-233q-157 0 -234 90t-77 231v1061z" />
    <glyph glyph-name="C" unicode="C" horiz-adv-x="1101" 
d="M687 492h325v-200q0 -131 -77 -211t-224 -80h-313q-147 0 -224 80t-77 211v799q0 131 77 211t224 80h313q147 0 224 -80t77 -211v-160h-325v130q0 68 -35 113t-97.5 45t-97.5 -45t-35 -113v-729q0 -68 35 -118t97.5 -50t97.5 50t35 118v160z" />
    <glyph glyph-name="D" unicode="D" horiz-adv-x="1101" 
d="M687 332v729q0 68 -35 113t-97 45h-133v-1055h133q62 0 97 50t35 118zM711 1382q147 0 224 -80t77 -211v-799q0 -131 -77 -211t-224 -80h-614v1381h614z" />
    <glyph glyph-name="E" unicode="E" horiz-adv-x="947" 
d="M879 1382v-193h-453v-371h403v-173h-403v-334q0 -58 25 -88t75 -30h353v-193h-503q-141 0 -208 75t-67 216v1091h778z" />
    <glyph glyph-name="F" unicode="F" horiz-adv-x="899" 
d="M426 555v-555h-325v1101q0 141 62 211t193 70h493v-193h-323q-50 0 -75 -30t-25 -88v-343h369v-173h-369z" />
    <glyph glyph-name="G" unicode="G" horiz-adv-x="1101" 
d="M687 496v-164q0 -68 -35 -118t-97.5 -50t-97.5 50t-35 118v729q0 68 35 113t97.5 45t97.5 -45t35 -113v-130h325v160q0 131 -77 211t-224 80h-313q-147 0 -224 -80t-77 -211v-799q0 -131 77 -211t224 -80h313q147 0 224 80t77 211v234q0 91 -52 146t-153 55h-263v-163h83
q30 0 45 -15t15 -53z" />
    <glyph glyph-name="H" unicode="H" horiz-adv-x="1101" 
d="M427 645v-645h-326v1383h326v-565h254v565h326v-1383h-326v645h-254z" />
    <glyph glyph-name="I" unicode="I" horiz-adv-x="525" 
d="M101 1383h326v-1383h-326v1383z" />
    <glyph glyph-name="J" unicode="J" horiz-adv-x="1032" 
d="M933 292q0 -131 -77 -211t-224 -80h-263q-147 0 -224 80t-77 211v290h325v-270q0 -58 30 -93t77.5 -35t77.5 35t30 93v844h-372q0 105 55.5 165.5t153.5 60.5h488v-1090z" />
    <glyph glyph-name="K" unicode="K" horiz-adv-x="1101" 
d="M427 703v-703h-326v1383h326v-456h8l328 455h356l-398 -506v-10q153 0 230 -80t77 -211v-575h-325v535q0 68 -35 118t-105 50h-136z" />
    <glyph glyph-name="L" unicode="L" horiz-adv-x="899" 
d="M376 0q-141 0 -208 75t-67 216v1091h325v-1071q0 -58 25 -88t75 -30h313v-193h-463z" />
    <glyph glyph-name="M" unicode="M" horiz-adv-x="1469" 
d="M1372 0h-326v805l-343 -805l-343 805v-805h-259v1383h108q192 0 282 -184l252 -548l239 548q90 184 282 184h108v-1383z" />
    <glyph glyph-name="N" unicode="N" horiz-adv-x="1140" 
d="M229 1383q162 0 262 -184l304 -551v735h259v-1383h-68q-201 0 -294 185l-332 620v-805h-259v1383h128z" />
    <glyph glyph-name="O" unicode="O" horiz-adv-x="1101" 
d="M687 332v729q0 68 -35 113t-97.5 45t-97.5 -45t-35 -113v-729q0 -68 35 -118t97.5 -50t97.5 50t35 118zM711 1382q147 0 224 -80t77 -211v-799q0 -131 -77 -211t-224 -80h-313q-147 0 -224 80t-77 211v799q0 131 77 211t224 80h313z" />
    <glyph glyph-name="P" unicode="P" horiz-adv-x="1101" 
d="M422 1219v-555h133q62 0 97 50t35 118v229q0 68 -35 113t-97 45h-133zM422 501v-501h-325v1211q0 81 52 126t139 45h363q177 0 269 -95t92 -266v-189q0 -131 -92 -231t-269 -100h-229z" />
    <glyph glyph-name="Q" unicode="Q" horiz-adv-x="1154" 
d="M636 195q-68 41 -142 59q12 52 57.5 82t87.5 30q24 0 48 -9v704q0 68 -35 113t-97.5 45t-97.5 -45t-35 -113v-729q0 -68 35 -118t98 -50q49 0 81 31zM1131 132q-3 -62 -32.5 -96.5t-89.5 -34.5q-53 2 -123 41q-70 -41 -175 -41h-313q-147 0 -224 80t-77 211v799
q0 131 77 211t224 80h313q147 0 224 -80t77 -211v-799q0 -68 -21 -122q47 -35 140 -38z" />
    <glyph glyph-name="R" unicode="R" horiz-adv-x="1101" 
d="M422 744h133q62 0 97 50t35 118v149q0 68 -35 113t-97 45h-133v-475zM854 685q158 -50 158 -234v-451h-325v481q0 58 -25 88t-75 30h-165v-599h-325v1211q0 81 52 126t139 45h323q187 0 294 -85t107 -216v-139q0 -194 -158 -249v-8z" />
    <glyph glyph-name="S" unicode="S" horiz-adv-x="1101" 
d="M97 1014v77q0 131 77 211t224 80h313q147 0 224 -80t77 -211v-130h-325v110q0 68 -35 108t-97.5 40t-97.5 -40t-35 -108v-115q0 -93 117 -135l252 -90q221 -67 221 -287v-152q0 -131 -77 -211t-224 -80h-313q-147 0 -224 80t-77 211v170h325v-140q0 -68 35 -113t97.5 -45
t97.5 45t35 113v130q0 113 -113 152l-256 88q-221 78 -221 322z" />
    <glyph glyph-name="T" unicode="T" horiz-adv-x="1093" 
d="M1058 1382q0 -104 -55.5 -165t-153.5 -61h-139v-1156h-326v1156h-348q0 105 55.5 165.5t153.5 60.5h813z" />
    <glyph glyph-name="U" unicode="U" horiz-adv-x="1101" 
d="M398 1q-147 0 -224 80t-77 211v1090h325v-1050q0 -68 35 -118t97.5 -50t97.5 50t35 118v1050h325v-1381h-614z" />
    <glyph glyph-name="V" unicode="V" horiz-adv-x="1249" 
d="M702 539l264 844h246l-433 -1383h-78q-182 0 -251 184l-399 1199h352l286 -844h13z" />
    <glyph glyph-name="W" unicode="W" horiz-adv-x="1632" 
d="M97 1382h325v-1060q0 -68 35 -113t82.5 -45t82.5 45t35 113v1060h325v-1060q0 -68 35 -113t82.5 -45t82.5 45t35 113v1060h325v-1381h-1144q-147 0 -224 80t-77 211v1090z" />
    <glyph glyph-name="X" unicode="X" horiz-adv-x="1101" 
d="M877 706q135 -69 135 -195v-510h-325v470q0 68 -35 118t-97.5 50t-97.5 -50t-35 -118v-470h-325v510q0 126 135 195v10q-135 70 -135 196v470h325v-420q0 -68 35 -118t97.5 -50t97.5 50t35 118v420h325v-470q0 -126 -135 -196v-10z" />
    <glyph glyph-name="Y" unicode="Y" horiz-adv-x="1131" 
d="M426 492l-395 891h352l246 -594h13l234 594h246l-370 -886v-497h-326v492z" />
    <glyph glyph-name="Z" unicode="Z" horiz-adv-x="1051" 
d="M77 1v50q0 70 52 199l376 812q26 62 26 88q-1 23 -25 36.5t-78 13.5h-340v183h905l-449 -1061q-25 -61 -25 -87q0 -24 19 -37.5t62 -13.5h372v-183h-895z" />
    <glyph glyph-name="bracketleft" unicode="[" horiz-adv-x="700" 
d="M609 1382v-193h-183v-996h183v-193h-508v1382h508z" />
    <glyph glyph-name="backslash" unicode="\" horiz-adv-x="946" 
d="M937 -360h-326l-600 1743h326z" />
    <glyph glyph-name="bracketright" unicode="]" horiz-adv-x="700" 
d="M609 1382v-1382h-508v193h183v996h-183v193h508z" />
    <glyph glyph-name="asciicircum" unicode="^" horiz-adv-x="1014" 
d="M56 591l328 702h78q142 0 211 -123l287 -579h-314l-172 341h-13l-159 -341h-246z" />
    <glyph glyph-name="underscore" unicode="_" horiz-adv-x="801" 
d="M815 -52v-226h-826v226h826z" />
    <glyph glyph-name="grave" unicode="`" horiz-adv-x="525" 
d="M227 1159.5q-69 22.5 -129 88.5l-127 133h313l175 -244h-82q-81 0 -150 22.5z" />
    <glyph glyph-name="a" unicode="a" 
d="M607 614v118q0 58 -25 93t-67.5 35t-67.5 -35t-25 -93v-38h-325v38q0 131 77 211t224 80h233q147 0 224 -80t77 -211v-440q0 -131 -77 -211t-224 -80h-233q-147 0 -224 80t-77 211q0 322 510 322zM422 282q0 -58 25 -88t67.5 -30t67.5 30t25 88v204q-185 0 -185 -204z
" />
    <glyph glyph-name="b" unicode="b" 
d="M607 292v450q0 58 -25 88t-67.5 30t-67.5 -30t-25 -88v-450q0 -58 25 -93t67.5 -35t67.5 35t25 93zM398 1q-147 0 -224 80t-77 211v1090h326v-359h208q147 0 224 -80t77 -211v-440q0 -131 -77 -211t-224 -80h-233z" />
    <glyph glyph-name="c" unicode="c" 
d="M607 350h325v-58q0 -131 -77 -211t-224 -80h-233q-147 0 -224 80t-77 211v440q0 131 77 211t224 80h233q147 0 224 -80t77 -211v-58h-325v68q0 58 -25 88t-67.5 30t-67.5 -30t-25 -88v-450q0 -58 25 -93t67.5 -35t67.5 35t25 93v58z" />
    <glyph glyph-name="d" unicode="d" 
d="M607 732q0 58 -25 93t-67.5 35t-67.5 -35t-25 -93v-450q0 -58 25 -88t67.5 -30t67.5 30t25 88v450zM606 1023v359h326v-1381h-534q-147 0 -224 80t-77 211v440q0 131 77 211t224 80h208z" />
    <glyph glyph-name="e" unicode="e" 
d="M422 460v-168q0 -58 25 -93t67.5 -35t67.5 35t25 93v58h325v-58q0 -131 -77 -211t-224 -80h-233q-147 0 -224 80t-77 211v440q0 131 77 211t224 80h233q147 0 224 -80t77 -211q0 -272 -510 -272zM607 742q0 58 -25 88t-67.5 30t-67.5 -30t-25 -88v-154q185 0 185 154z
" />
    <glyph glyph-name="f" unicode="f" horiz-adv-x="741" 
d="M695 1023v-183h-269v-840h-325v1101q0 141 77 211t208 70h309v-183h-169q-50 0 -75 -20t-25 -78v-78h269z" />
    <glyph glyph-name="g" unicode="g" 
d="M607 742q0 58 -25 88t-67.5 30t-67.5 -30t-25 -88v-450q0 -58 25 -93t67.5 -35t67.5 35t25 93v450zM932 -83q0 -110 -77 -192.5t-228 -82.5h-473v183h323q70 0 97.5 27.5t31.5 70.5v78h-208q-147 0 -224 80t-77 211v440q0 131 77 211t224 80h233q147 0 224 -80t77 -211
v-815z" />
    <glyph glyph-name="h" unicode="h" 
d="M607 2v740q0 58 -25 88t-67.5 30t-67.5 -30t-25 -88v-740h-325v1380h326v-359h208q147 0 224 -80t77 -211v-730h-325z" />
    <glyph glyph-name="i" unicode="i" horiz-adv-x="525" 
d="M427 1023v-1023h-326v1023h326zM101 1142v205h326v-205h-326z" />
    <glyph glyph-name="j" unicode="j" horiz-adv-x="525" 
d="M101 1142v205h326v-205h-326zM101 1023h1v1h325v-1107h-2q-11 -110 -81.5 -192.5t-221.5 -82.5h-263v183h113q70 0 97.5 27.5t31.5 70.5v1100z" />
    <glyph glyph-name="k" unicode="k" horiz-adv-x="1101" 
d="M427 418v-418h-326v1383h326v-677h8l228 317h346l-338 -412v-19l408 -592h-366l-279 418h-7z" />
    <glyph glyph-name="l" unicode="l" horiz-adv-x="700" 
d="M101 301v1081h325v-1061q0 -58 30 -88t100 -30h123l-20 -203h-263q-151 0 -223 80t-72 221z" />
    <glyph glyph-name="m" unicode="m" horiz-adv-x="1534" 
d="M607 712q0 78 -30 113t-80 35t-70 -25v-835h-326v1023h892q261 0 353 -95t92 -226v-702h-325v712q0 78 -30 113t-80 35t-70 -25v-835h-326v712z" />
    <glyph glyph-name="n" unicode="n" 
d="M932 702v-702h-325v712q0 78 -30 113t-80 35t-70 -25v-835h-326v1023h386q261 0 353 -95t92 -226z" />
    <glyph glyph-name="o" unicode="o" 
d="M932 292q0 -131 -77 -211t-224 -80h-233q-147 0 -224 80t-77 211v440q0 131 77 211t224 80h233q147 0 224 -80t77 -211v-440zM607 742q0 58 -25 88t-67.5 30t-67.5 -30t-25 -88v-450q0 -58 25 -93t67.5 -35t67.5 35t25 93v450z" />
    <glyph glyph-name="p" unicode="p" 
d="M422 742v-450q0 -58 25 -93t67.5 -35t67.5 35t25 93v450q0 58 -25 88t-67.5 30t-67.5 -30t-25 -88zM97 1023h534q147 0 224 -80t77 -211v-440q0 -131 -77 -211t-224 -80h-208v-359h-326v1381z" />
    <glyph glyph-name="q" unicode="q" 
d="M607 742q0 58 -25 88t-67.5 30t-67.5 -30t-25 -88v-450q0 -58 25 -93t67.5 -35t67.5 35t25 93v450zM932 -163h165q0 -87 -48 -141t-145 -54h-298v359h-208q-147 0 -224 80t-77 211v440q0 131 77 211t224 80h233q147 0 224 -80t77 -211v-895z" />
    <glyph glyph-name="r" unicode="r" 
d="M932 732v-152h-325v132q0 78 -30 113t-80 35t-70 -25v-835h-326v1023h516q171 0 243 -80t72 -211z" />
    <glyph glyph-name="s" unicode="s" 
d="M97 762q0 111 77 186t224 75h233q147 0 224 -80t77 -211v-58h-325v68q0 58 -25 88t-67.5 30t-67.5 -30t-25 -88q0 -97 112 -132l143 -45q255 -80 255 -283q0 -121 -77 -201t-224 -80h-233q-147 0 -224 80t-77 211v58h325v-58q0 -58 25 -93t67.5 -35t67.5 35t25 93
q0 115 -112 150l-143 45q-255 80 -255 275z" />
    <glyph glyph-name="t" unicode="t" horiz-adv-x="861" 
d="M426 840v-539q0 -58 30 -88t100 -30h243v-183h-393q-151 0 -228 90t-77 231v961h325v-259h269v-183h-269z" />
    <glyph glyph-name="u" unicode="u" 
d="M101 1023h325v-712q0 -78 30 -113t80 -35t70 25v835h326v-1023h-386q-261 0 -353 95t-92 226v702z" />
    <glyph glyph-name="v" unicode="v" horiz-adv-x="993" 
d="M519 404l127 619h326l-330 -1023h-261l-330 1023h326l128 -619h14z" />
    <glyph glyph-name="w" unicode="w" horiz-adv-x="1534" 
d="M101 1023h325v-712q0 -78 30 -113t80 -35t70 25v835h326v-712q0 -78 30 -113t80 -35t70 25v835h326v-1023h-892q-261 0 -353 95t-92 226v702z" />
    <glyph glyph-name="x" unicode="x" horiz-adv-x="1010" 
d="M825 508q107 -68 107 -214v-293h-325v293q0 58 -25 93t-67.5 35t-67.5 -35t-25 -93v-293h-325v293q0 146 107 214v8q-107 68 -107 214v293h325v-293q0 -58 25 -93t67.5 -35t67.5 35t25 93v293h325v-293q0 -146 -107 -214v-8z" />
    <glyph glyph-name="y" unicode="y" 
d="M422 1024v-732q0 -58 25 -93t68 -35q92 0 92 128v732h325v-1107h-2q-11 -110 -81.5 -192.5t-221.5 -82.5h-473v183h323q70 0 97.5 27.5t31.5 70.5v78h-208q-147 0 -224 80t-77 211v732h325z" />
    <glyph glyph-name="z" unicode="z" horiz-adv-x="1021" 
d="M588.5 197.5q17.5 -13.5 47.5 -13.5h323v-183h-892l366 722q24 42 24 68q-1 23 -23.5 36.5t-62.5 13.5h-303v183h892l-366 -722q-23 -41 -23 -67q0 -24 17.5 -37.5z" />
    <glyph glyph-name="braceleft" unicode="{" horiz-adv-x="755" 
d="M201 921v116q0 345 344 345h164v-193h-91q-92 0 -92 -149v-119q0 -203 -150 -230q150 -26 150 -229v-120q0 -149 92 -149h91v-193h-164q-344 0 -344 346v116q0 136 -92 136h-53v186h53q92 0 92 137z" />
    <glyph glyph-name="bar" unicode="|" horiz-adv-x="946" 
d="M636 -360h-326v1743h326v-1743z" />
    <glyph glyph-name="braceright" unicode="}" horiz-adv-x="755" 
d="M657 784h52v-186h-52q-93 0 -93 -136v-116q0 -346 -344 -346h-164v193h91q92 0 92 149v120q0 203 150 229q-150 27 -150 230v119q0 149 -92 149h-91v193h164q344 0 344 -345v-116q0 -137 93 -137z" />
    <glyph glyph-name="asciitilde" unicode="~" horiz-adv-x="1024" 
d="M289 528q-57 0 -67 -70h-136q0 296 215 296q87 0 225 -34.5t199 -34.5q57 0 67 69h136q0 -296 -215 -296q-87 0 -225 35t-199 35z" />
    <glyph glyph-name="exclamdown" unicode="&#xa1;" horiz-adv-x="525" 
d="M427 1023v-205h-326v205h326zM427 -359h-326v803q0 244 223 244h103v-1047z" />
    <glyph glyph-name="cent" unicode="&#xa2;" horiz-adv-x="1014" 
d="M412 1203v178h206v-178h13q147 0 224 -80t77 -211v-58h-325v68q0 58 -25 88t-67.5 30t-67.5 -30t-25 -88v-450q0 -58 25 -93t67.5 -35t67.5 35t25 93v58h325v-58q0 -131 -77 -211t-224 -80h-13v-181h-206v181h-14q-147 0 -224 80t-77 211v440q0 131 77 211t224 80h14z
" />
    <glyph glyph-name="sterling" unicode="&#xa3;" horiz-adv-x="1100" 
d="M532 531v-276q1 -42 25.5 -66.5t67.5 -24.5h397v-163h-815v530h-157v180h157v281q0 141 77 221t224 80h233q147 0 224 -80t77 -211v-101h-325v111q0 58 -25 88t-67.5 30t-67.5 -30t-25 -98v-291h274v-180h-274z" />
    <glyph glyph-name="yen" unicode="&#xa5;" horiz-adv-x="1131" 
d="M426 492l-395 891h352l246 -594h13l234 594h246l-370 -886v-497h-326v492zM908 463v-142h-662v142h662zM908 244v-142h-662v142h662z" />
    <glyph glyph-name="section" unicode="&#xa7;" 
d="M207 933q-110 75 -110 198q0 107 77 179t224 72h233q147 0 224 -77t77 -202v-56h-325v65q0 56 -25 84.5t-67.5 28.5t-67.5 -28.5t-25 -84.5q0 -93 112 -127l143 -43q255 -77 255 -272q0 -116 -77 -193q-15 -15 -33 -27q110 -75 110 -198q0 -107 -77 -179t-224 -72h-233
q-147 0 -224 77t-77 202v56h325v-65q0 -56 25 -84.5t67.5 -28.5t67.5 28.5t25 84.5q0 93 -112 127l-143 43q-255 77 -255 272q0 116 77 193q15 15 33 27zM582 591q25 33 25 89q0 110 -112 144q-29 -6 -48 -32q-25 -33 -25 -89q0 -110 112 -144q29 6 48 32z" />
    <glyph glyph-name="dieresis" unicode="&#xa8;" horiz-adv-x="1000" 
d="M110 1137v205h326v-205h-326zM558 1137v205h326v-205h-326z" />
    <glyph glyph-name="copyright" unicode="&#xa9;" horiz-adv-x="1463" 
d="M1064 1382q153 0 233.5 -90t80.5 -221v-759q0 -131 -80.5 -221t-233.5 -90h-653q-153 0 -233.5 90t-80.5 221v759q0 131 80.5 221t233.5 90h653zM458 1241q-111 0 -148.5 -46t-37.5 -134v-739q0 -88 37.5 -133.5t148.5 -45.5h559q111 0 148.5 45.5t37.5 133.5v739
q0 88 -37.5 134t-148.5 46h-559zM807 570h243v-43q0 -98 -58 -157.5t-167 -59.5h-175q-109 0 -166.5 59.5t-57.5 157.5v329q0 98 57.5 157.5t166.5 59.5h175q109 0 167 -59.5t58 -157.5v-43h-243v50q0 44 -19 66.5t-50.5 22.5t-50.5 -22.5t-19 -66.5v-336q0 -43 19 -69.5
t50.5 -26.5t50.5 26.5t19 69.5v43z" />
    <glyph glyph-name="guillemotleft" unicode="&#xab;" horiz-adv-x="1401" 
d="M518 143l-439 368v58q0 102 146 231l293 247h290l-372 -446v-13l372 -445h-290zM1060 143l-439 368v58q0 102 146 231l293 247h290l-372 -446v-13l372 -445h-290z" />
    <glyph glyph-name="logicalnot" unicode="&#xac;" 
d="M55 803h892v-432h-313v160q0 50 -13.5 72.5t-36.5 23.5h-529v176z" />
    <glyph glyph-name="registered" unicode="&#xae;" horiz-adv-x="1463" 
d="M1064 1382q153 0 233.5 -90t80.5 -221v-759q0 -131 -80.5 -221t-233.5 -90h-653q-153 0 -233.5 90t-80.5 221v759q0 131 80.5 221t233.5 90h653zM458 1241q-111 0 -148.5 -46t-37.5 -134v-739q0 -88 37.5 -133.5t148.5 -45.5h559q111 0 148.5 45.5t37.5 133.5v739
q0 88 -37.5 134t-148.5 46h-559zM675 698h32q45 0 71 29.5t26 72.5v47q0 35 -26 68.5t-71 33.5h-32v-251zM935 654q109 -37 109 -173v-168h-240v191q0 42 -18.5 64.5t-55.5 22.5h-55v-278h-240v630q0 60 38.5 93t102.5 33h172q138 0 217 -62.5t79 -159.5v-40
q0 -106 -109 -147v-6z" />
    <glyph glyph-name="macron" unicode="&#xaf;" horiz-adv-x="801" 
d="M702 1326v-226h-604v226h604z" />
    <glyph glyph-name="degree" unicode="&#xb0;" horiz-adv-x="801" 
d="M411 772q-127 0 -216.5 89.5t-89.5 216.5q0 126 89.5 215t216.5 89q126 0 215 -89t89 -215q0 -127 -89 -216.5t-215 -89.5zM507.5 980.5q39.5 40.5 39.5 97.5t-39.5 96.5t-96.5 39.5t-97.5 -39.5t-40.5 -96.5t40.5 -97.5t97.5 -40.5t96.5 40.5z" />
    <glyph glyph-name="acute" unicode="&#xb4;" horiz-adv-x="525" 
d="M221 1137h-81l174 244h314l-127 -133q-60 -66 -129 -88.5t-151 -22.5z" />
    <glyph glyph-name="paragraph" unicode="&#xb6;" horiz-adv-x="1199" 
d="M886 1211h-154v-1570h-225v860h-59q-177 0 -269 100t-92 231v189q0 171 92 266t269 95h664v-1741h-226v1570z" />
    <glyph glyph-name="periodcentered" unicode="&#xb7;" horiz-adv-x="371" 
d="M51 604v175h277v-175h-277z" />
    <glyph glyph-name="periodcentered" unicode="&#x2219;" horiz-adv-x="371" 
d="M51 604v175h277v-175h-277z" />
    <glyph glyph-name="cedilla" unicode="&#xb8;" horiz-adv-x="525" 
d="M15 -359h-86l186 265h335l-136 -144q-64 -72 -137.5 -96.5t-161.5 -24.5z" />
    <glyph glyph-name="guillemotright" unicode="&#xbb;" horiz-adv-x="1401" 
d="M349 1047l439 -368v-58q0 -102 -146 -231l-293 -247h-290l372 446v13l-372 445h290zM891 1047l439 -368v-58q0 -102 -146 -231l-293 -247h-290l372 446v13l-372 445h290z" />
    <glyph glyph-name="questiondown" unicode="&#xbf;" horiz-adv-x="1000" 
d="M830 1023v-205h-326v205h326zM504 484v42q0 162 223 162h103v-165q0 -165 -133 -255l-133 -90q-112 -70 -112 -182q0 -91 60 -141t172 -50h224v-163h-350q-177 0 -304 80t-127 265q0 186 198 315q179 122 179 182z" />
    <glyph glyph-name="Agrave" unicode="&#xc0;" horiz-adv-x="1101" 
d="M687 675v376q0 68 -35 118t-97 50h-133v-544h265zM1012 1h-325v501h-265v-501h-325v1381h614q147 0 224 -80t77 -211v-1090zM485 1519.5q-69 22.5 -129 88.5l-127 133h313l175 -244h-82q-81 0 -150 22.5z" />
    <glyph glyph-name="Aacute" unicode="&#xc1;" horiz-adv-x="1101" 
d="M687 675v376q0 68 -35 118t-97 50h-133v-544h265zM1012 1h-325v501h-265v-501h-325v1381h614q147 0 224 -80t77 -211v-1090zM473 1497h-81l174 244h314l-127 -133q-60 -66 -129 -88.5t-151 -22.5z" />
    <glyph glyph-name="Acircumflex" unicode="&#xc2;" horiz-adv-x="1101" 
d="M687 675v376q0 68 -35 118t-97 50h-133v-544h265zM1012 1h-325v501h-265v-501h-325v1381h614q147 0 224 -80t77 -211v-1090zM249 1497l222 246h53q96 0 143 -43l194 -203h-243l-86 80h-9l-78 -80h-196z" />
    <glyph glyph-name="Atilde" unicode="&#xc3;" horiz-adv-x="1101" 
d="M687 675v376q0 68 -35 118t-97 50h-133v-544h265zM1012 1h-325v501h-265v-501h-325v1381h614q147 0 224 -80t77 -211v-1090zM437 1567q-57 0 -67 -70h-136q0 246 215 246q57 0 125 -34.5t99 -34.5q57 0 67 69h136q0 -246 -215 -246q-57 0 -125 35t-99 35z" />
    <glyph glyph-name="Adieresis" unicode="&#xc4;" horiz-adv-x="1101" 
d="M687 675v376q0 68 -35 118t-97 50h-133v-544h265zM1012 1h-325v501h-265v-501h-325v1381h614q147 0 224 -80t77 -211v-1090zM168 1497v205h326v-205h-326zM616 1497v205h326v-205h-326z" />
    <glyph glyph-name="Aring" unicode="&#xc5;" horiz-adv-x="1101" 
d="M687 675v376q0 68 -35 118t-97 50h-133v-544h265zM1012 1h-325v501h-265v-501h-325v1381h614q147 0 224 -80t77 -211v-1090zM537 1403q-89 0 -152 63t-63 152t63 151.5t152 62.5t151.5 -62.5t62.5 -151.5t-62.5 -152t-151.5 -63zM591.5 1563q22.5 23 22.5 55t-22.5 54.5
t-54.5 22.5t-55 -22.5t-23 -54.5t23 -55t55 -23t54.5 23z" />
    <glyph glyph-name="AE" unicode="&#xc6;" horiz-adv-x="1529" 
d="M687 675v544h-133q-62 0 -97 -50t-35 -118v-376h265zM687 502h-265v-501h-325v1090q0 131 77 211t224 80h1069v-193h-453v-371h403v-173h-403v-334q0 -58 25 -88t75 -30h353v-193h-503q-141 0 -209 75t-68 216v211z" />
    <glyph glyph-name="Ccedilla" unicode="&#xc7;" horiz-adv-x="1101" 
d="M687 492h325v-200q0 -131 -77 -211t-224 -80h-313q-147 0 -224 80t-77 211v799q0 131 77 211t224 80h313q147 0 224 -80t77 -211v-160h-325v130q0 68 -35 113t-97.5 45t-97.5 -45t-35 -113v-729q0 -68 35 -118t97.5 -50t97.5 50t35 118v160zM380 -359h-86l186 265h335
l-136 -144q-64 -72 -137.5 -96.5t-161.5 -24.5z" />
    <glyph glyph-name="Egrave" unicode="&#xc8;" horiz-adv-x="947" 
d="M879 1382v-193h-453v-371h403v-173h-403v-334q0 -58 25 -88t75 -30h353v-193h-503q-141 0 -208 75t-67 216v1091h778zM421 1519.5q-69 22.5 -129 88.5l-127 133h313l175 -244h-82q-81 0 -150 22.5z" />
    <glyph glyph-name="Eacute" unicode="&#xc9;" horiz-adv-x="947" 
d="M879 1382v-193h-453v-371h403v-173h-403v-334q0 -58 25 -88t75 -30h353v-193h-503q-141 0 -208 75t-67 216v1091h778zM408 1497h-81l174 244h314l-127 -133q-60 -66 -129 -88.5t-151 -22.5z" />
    <glyph glyph-name="Ecircumflex" unicode="&#xca;" horiz-adv-x="947" 
d="M879 1382v-193h-453v-371h403v-173h-403v-334q0 -58 25 -88t75 -30h353v-193h-503q-141 0 -208 75t-67 216v1091h778zM184 1497l222 246h53q96 0 143 -43l194 -203h-243l-86 80h-9l-78 -80h-196z" />
    <glyph glyph-name="Edieresis" unicode="&#xcb;" horiz-adv-x="947" 
d="M879 1382v-193h-453v-371h403v-173h-403v-334q0 -58 25 -88t75 -30h353v-193h-503q-141 0 -208 75t-67 216v1091h778zM103 1497v205h326v-205h-326zM551 1497v205h326v-205h-326z" />
    <glyph glyph-name="Igrave" unicode="&#xcc;" horiz-adv-x="525" 
d="M101 1383h326v-1383h-326v1383zM195 1519.5q-69 22.5 -129 88.5l-127 133h313l175 -244h-82q-81 0 -150 22.5z" />
    <glyph glyph-name="Iacute" unicode="&#xcd;" horiz-adv-x="525" 
d="M101 1383h326v-1383h-326v1383zM182 1497h-81l174 244h314l-127 -133q-60 -66 -129 -88.5t-151 -22.5z" />
    <glyph glyph-name="Icircumflex" unicode="&#xce;" horiz-adv-x="525" 
d="M101 1383h326v-1383h-326v1383zM-42 1497l222 246h53q96 0 143 -43l194 -203h-243l-86 80h-9l-78 -80h-196z" />
    <glyph glyph-name="Idieresis" unicode="&#xcf;" horiz-adv-x="525" 
d="M101 1383h326v-1383h-326v1383zM-123 1497v205h326v-205h-326zM325 1497v205h326v-205h-326z" />
    <glyph glyph-name="Eth" unicode="&#xd0;" horiz-adv-x="1101" 
d="M147 755v627h614q147 0 224 -80t77 -211v-799q0 -131 -77 -211t-224 -80h-614v588h-110v166h110zM472 755h130v-166h-130v-425h133q62 0 97 50t35 118v729q0 68 -35 113t-97 45h-133v-464z" />
    <glyph glyph-name="Ntilde" unicode="&#xd1;" horiz-adv-x="1140" 
d="M229 1383q162 0 262 -184l304 -551v735h259v-1383h-68q-201 0 -294 185l-332 620v-805h-259v1383h128zM460 1567q-57 0 -67 -70h-136q0 246 215 246q57 0 125 -34.5t99 -34.5q57 0 67 69h136q0 -246 -215 -246q-57 0 -125 35t-99 35z" />
    <glyph glyph-name="Ograve" unicode="&#xd2;" horiz-adv-x="1101" 
d="M687 332v729q0 68 -35 113t-97.5 45t-97.5 -45t-35 -113v-729q0 -68 35 -118t97.5 -50t97.5 50t35 118zM711 1382q147 0 224 -80t77 -211v-799q0 -131 -77 -211t-224 -80h-313q-147 0 -224 80t-77 211v799q0 131 77 211t224 80h313zM485 1519.5q-69 22.5 -129 88.5
l-127 133h313l175 -244h-82q-81 0 -150 22.5z" />
    <glyph glyph-name="Oacute" unicode="&#xd3;" horiz-adv-x="1101" 
d="M687 332v729q0 68 -35 113t-97.5 45t-97.5 -45t-35 -113v-729q0 -68 35 -118t97.5 -50t97.5 50t35 118zM711 1382q147 0 224 -80t77 -211v-799q0 -131 -77 -211t-224 -80h-313q-147 0 -224 80t-77 211v799q0 131 77 211t224 80h313zM473 1497h-81l174 244h314l-127 -133
q-60 -66 -129 -88.5t-151 -22.5z" />
    <glyph glyph-name="Ocircumflex" unicode="&#xd4;" horiz-adv-x="1101" 
d="M687 332v729q0 68 -35 113t-97.5 45t-97.5 -45t-35 -113v-729q0 -68 35 -118t97.5 -50t97.5 50t35 118zM711 1382q147 0 224 -80t77 -211v-799q0 -131 -77 -211t-224 -80h-313q-147 0 -224 80t-77 211v799q0 131 77 211t224 80h313zM249 1497l222 246h53q96 0 143 -43
l194 -203h-243l-86 80h-9l-78 -80h-196z" />
    <glyph glyph-name="Otilde" unicode="&#xd5;" horiz-adv-x="1101" 
d="M687 332v729q0 68 -35 113t-97.5 45t-97.5 -45t-35 -113v-729q0 -68 35 -118t97.5 -50t97.5 50t35 118zM711 1382q147 0 224 -80t77 -211v-799q0 -131 -77 -211t-224 -80h-313q-147 0 -224 80t-77 211v799q0 131 77 211t224 80h313zM437 1567q-57 0 -67 -70h-136
q0 246 215 246q57 0 125 -34.5t99 -34.5q57 0 67 69h136q0 -246 -215 -246q-57 0 -125 35t-99 35z" />
    <glyph glyph-name="Odieresis" unicode="&#xd6;" horiz-adv-x="1101" 
d="M687 332v729q0 68 -35 113t-97.5 45t-97.5 -45t-35 -113v-729q0 -68 35 -118t97.5 -50t97.5 50t35 118zM711 1382q147 0 224 -80t77 -211v-799q0 -131 -77 -211t-224 -80h-313q-147 0 -224 80t-77 211v799q0 131 77 211t224 80h313zM168 1497v205h326v-205h-326z
M616 1497v205h326v-205h-326z" />
    <glyph glyph-name="multiply" unicode="&#xd7;" horiz-adv-x="1101" 
d="M547 673l252 253l132 -132l-252 -252l252 -252l-131 -131l-252 252l-252 -253l-132 132l252 252l-252 252l131 131z" />
    <glyph glyph-name="Oslash" unicode="&#xd8;" horiz-adv-x="1101" 
d="M930 1302q77 -80 77 -211v-799q0 -131 -77 -211t-224 -80h-313q-147 0 -224 80t-77 211v799q0 131 77 211t224 80h313q147 0 224 -80zM647 214q35 50 35 118v729q0 68 -35 113t-97.5 45t-97.5 -45t-35 -113v-729q0 -68 35 -118t97.5 -50t97.5 50zM922 1383h126
l-871 -1382h-126z" />
    <glyph glyph-name="Ugrave" unicode="&#xd9;" horiz-adv-x="1101" 
d="M398 1q-147 0 -224 80t-77 211v1090h325v-1050q0 -68 35 -118t97.5 -50t97.5 50t35 118v1050h325v-1381h-614zM485 1519.5q-69 22.5 -129 88.5l-127 133h313l175 -244h-82q-81 0 -150 22.5z" />
    <glyph glyph-name="Uacute" unicode="&#xda;" horiz-adv-x="1101" 
d="M398 1q-147 0 -224 80t-77 211v1090h325v-1050q0 -68 35 -118t97.5 -50t97.5 50t35 118v1050h325v-1381h-614zM473 1497h-81l174 244h314l-127 -133q-60 -66 -129 -88.5t-151 -22.5z" />
    <glyph glyph-name="Ucircumflex" unicode="&#xdb;" horiz-adv-x="1101" 
d="M398 1q-147 0 -224 80t-77 211v1090h325v-1050q0 -68 35 -118t97.5 -50t97.5 50t35 118v1050h325v-1381h-614zM249 1497l222 246h53q96 0 143 -43l194 -203h-243l-86 80h-9l-78 -80h-196z" />
    <glyph glyph-name="Udieresis" unicode="&#xdc;" horiz-adv-x="1101" 
d="M398 1q-147 0 -224 80t-77 211v1090h325v-1050q0 -68 35 -118t97.5 -50t97.5 50t35 118v1050h325v-1381h-614zM168 1497v205h326v-205h-326zM616 1497v205h326v-205h-326z" />
    <glyph glyph-name="Yacute" unicode="&#xdd;" horiz-adv-x="1131" 
d="M426 492l-395 891h352l246 -594h13l234 594h246l-370 -886v-497h-326v492zM495 1497h-81l174 244h314l-127 -133q-60 -66 -129 -88.5t-151 -22.5z" />
    <glyph glyph-name="Thorn" unicode="&#xde;" horiz-adv-x="1101" 
d="M423 1182h228q177 0 269 -95t92 -266v-189q0 -131 -92 -231t-269 -100h-228v-300h-326v1382h326v-201zM423 1019v-555h132q62 0 97 50t35 118v229q0 68 -35 113t-97 45h-132z" />
    <glyph glyph-name="germandbls" unicode="&#xdf;" 
d="M97 -358v1360q0 131 77 211t224 80h233q147 0 224 -80t77 -211v-128q0 -153 -139 -215v-12q139 -62 139 -215v-140q0 -131 -77 -211t-224 -80h-142v163h26q42 0 67 30t25 88v160q0 58 -25 93t-67 35h-26v166h26q42 0 67 35t25 93v148q0 58 -25 88t-67.5 30t-67.5 -30
t-25 -88v-1370h-325z" />
    <glyph glyph-name="agrave" unicode="&#xe0;" 
d="M607 614v118q0 58 -25 93t-67.5 35t-67.5 -35t-25 -93v-38h-325v38q0 131 77 211t224 80h233q147 0 224 -80t77 -211v-440q0 -131 -77 -211t-224 -80h-233q-147 0 -224 80t-77 211q0 322 510 322zM422 282q0 -58 25 -88t67.5 -30t67.5 30t25 88v204q-185 0 -185 -204z
M445 1159.5q-69 22.5 -129 88.5l-127 133h313l175 -244h-82q-81 0 -150 22.5z" />
    <glyph glyph-name="aacute" unicode="&#xe1;" 
d="M607 614v118q0 58 -25 93t-67.5 35t-67.5 -35t-25 -93v-38h-325v38q0 131 77 211t224 80h233q147 0 224 -80t77 -211v-440q0 -131 -77 -211t-224 -80h-233q-147 0 -224 80t-77 211q0 322 510 322zM422 282q0 -58 25 -88t67.5 -30t67.5 30t25 88v204q-185 0 -185 -204z
M433 1137h-81l174 244h314l-127 -133q-60 -66 -129 -88.5t-151 -22.5z" />
    <glyph glyph-name="acircumflex" unicode="&#xe2;" 
d="M607 614v118q0 58 -25 93t-67.5 35t-67.5 -35t-25 -93v-38h-325v38q0 131 77 211t224 80h233q147 0 224 -80t77 -211v-440q0 -131 -77 -211t-224 -80h-233q-147 0 -224 80t-77 211q0 322 510 322zM422 282q0 -58 25 -88t67.5 -30t67.5 30t25 88v204q-185 0 -185 -204z
M209 1137l222 246h53q96 0 143 -43l194 -203h-243l-86 80h-9l-78 -80h-196z" />
    <glyph glyph-name="atilde" unicode="&#xe3;" 
d="M607 614v118q0 58 -25 93t-67.5 35t-67.5 -35t-25 -93v-38h-325v38q0 131 77 211t224 80h233q147 0 224 -80t77 -211v-440q0 -131 -77 -211t-224 -80h-233q-147 0 -224 80t-77 211q0 322 510 322zM422 282q0 -58 25 -88t67.5 -30t67.5 30t25 88v204q-185 0 -185 -204z
M397 1207q-57 0 -67 -70h-136q0 246 215 246q57 0 125 -34.5t99 -34.5q57 0 67 69h136q0 -246 -215 -246q-57 0 -125 35t-99 35z" />
    <glyph glyph-name="adieresis" unicode="&#xe4;" 
d="M607 614v118q0 58 -25 93t-67.5 35t-67.5 -35t-25 -93v-38h-325v38q0 131 77 211t224 80h233q147 0 224 -80t77 -211v-440q0 -131 -77 -211t-224 -80h-233q-147 0 -224 80t-77 211q0 322 510 322zM422 282q0 -58 25 -88t67.5 -30t67.5 30t25 88v204q-185 0 -185 -204z
M128 1137v205h326v-205h-326zM576 1137v205h326v-205h-326z" />
    <glyph glyph-name="aring" unicode="&#xe5;" 
d="M607 614v118q0 58 -25 93t-67.5 35t-67.5 -35t-25 -93v-38h-325v38q0 131 77 211t224 80h233q147 0 224 -80t77 -211v-440q0 -131 -77 -211t-224 -80h-233q-147 0 -224 80t-77 211q0 322 510 322zM422 282q0 -58 25 -88t67.5 -30t67.5 30t25 88v204q-185 0 -185 -204z
M515 1083q-89 0 -152 63t-63 152t63 151.5t152 62.5t151.5 -62.5t62.5 -151.5t-62.5 -152t-151.5 -63zM569.5 1243q22.5 23 22.5 55t-22.5 54.5t-54.5 22.5t-55 -22.5t-23 -54.5t23 -55t55 -23t54.5 23z" />
    <glyph glyph-name="ae" unicode="&#xe6;" horiz-adv-x="1531" 
d="M422 282q0 -58 25 -88t67.5 -30t67.5 30t25 88v204q-185 0 -185 -204zM1119 742q0 58 -25 88t-67.5 30t-67.5 -30t-25 -88v-154q185 0 185 154zM771 55q-60 -54 -170 -54h-203q-147 0 -224 80t-77 211q0 322 510 322v118q0 58 -25 93t-67.5 35t-67.5 -35t-25 -93v-38
h-325v38q0 131 77 211t224 80h203q110 0 170 -54q59 54 169 54h203q147 0 224 -80t77 -211q0 -272 -510 -272v-168q0 -58 25 -93t67.5 -35t67.5 35t25 93v58h325v-58q0 -131 -77 -211t-224 -80h-203q-110 0 -169 54z" />
    <glyph glyph-name="ccedilla" unicode="&#xe7;" 
d="M607 350h325v-58q0 -131 -77 -211t-224 -80h-233q-147 0 -224 80t-77 211v440q0 131 77 211t224 80h233q147 0 224 -80t77 -211v-58h-325v68q0 58 -25 88t-67.5 30t-67.5 -30t-25 -88v-450q0 -58 25 -93t67.5 -35t67.5 35t25 93v58zM340 -359h-86l186 265h335l-136 -144
q-64 -72 -137.5 -96.5t-161.5 -24.5z" />
    <glyph glyph-name="egrave" unicode="&#xe8;" 
d="M422 460v-168q0 -58 25 -93t67.5 -35t67.5 35t25 93v58h325v-58q0 -131 -77 -211t-224 -80h-233q-147 0 -224 80t-77 211v440q0 131 77 211t224 80h233q147 0 224 -80t77 -211q0 -272 -510 -272zM607 742q0 58 -25 88t-67.5 30t-67.5 -30t-25 -88v-154q185 0 185 154z
M445 1159.5q-69 22.5 -129 88.5l-127 133h313l175 -244h-82q-81 0 -150 22.5z" />
    <glyph glyph-name="eacute" unicode="&#xe9;" 
d="M422 460v-168q0 -58 25 -93t67.5 -35t67.5 35t25 93v58h325v-58q0 -131 -77 -211t-224 -80h-233q-147 0 -224 80t-77 211v440q0 131 77 211t224 80h233q147 0 224 -80t77 -211q0 -272 -510 -272zM607 742q0 58 -25 88t-67.5 30t-67.5 -30t-25 -88v-154q185 0 185 154z
M433 1137h-81l174 244h314l-127 -133q-60 -66 -129 -88.5t-151 -22.5z" />
    <glyph glyph-name="ecircumflex" unicode="&#xea;" 
d="M422 460v-168q0 -58 25 -93t67.5 -35t67.5 35t25 93v58h325v-58q0 -131 -77 -211t-224 -80h-233q-147 0 -224 80t-77 211v440q0 131 77 211t224 80h233q147 0 224 -80t77 -211q0 -272 -510 -272zM607 742q0 58 -25 88t-67.5 30t-67.5 -30t-25 -88v-154q185 0 185 154z
M209 1137l222 246h53q96 0 143 -43l194 -203h-243l-86 80h-9l-78 -80h-196z" />
    <glyph glyph-name="edieresis" unicode="&#xeb;" 
d="M422 460v-168q0 -58 25 -93t67.5 -35t67.5 35t25 93v58h325v-58q0 -131 -77 -211t-224 -80h-233q-147 0 -224 80t-77 211v440q0 131 77 211t224 80h233q147 0 224 -80t77 -211q0 -272 -510 -272zM607 742q0 58 -25 88t-67.5 30t-67.5 -30t-25 -88v-154q185 0 185 154z
M128 1137v205h326v-205h-326zM576 1137v205h326v-205h-326z" />
    <glyph glyph-name="igrave" unicode="&#xec;" horiz-adv-x="525" 
d="M427 1023v-1023h-326v1023h326zM195 1159.5q-69 22.5 -129 88.5l-127 133h313l175 -244h-82q-81 0 -150 22.5z" />
    <glyph glyph-name="iacute" unicode="&#xed;" horiz-adv-x="525" 
d="M427 1023v-1023h-326v1023h326zM182 1137h-81l174 244h314l-127 -133q-60 -66 -129 -88.5t-151 -22.5z" />
    <glyph glyph-name="icircumflex" unicode="&#xee;" horiz-adv-x="525" 
d="M427 1023v-1023h-326v1023h326zM-42 1137l222 246h53q96 0 143 -43l194 -203h-243l-86 80h-9l-78 -80h-196z" />
    <glyph glyph-name="idieresis" unicode="&#xef;" horiz-adv-x="525" 
d="M427 1023v-1023h-326v1023h326zM-123 1137v205h326v-205h-326zM325 1137v205h326v-205h-326z" />
    <glyph glyph-name="eth" unicode="&#xf0;" 
d="M607 832v170q0 58 -25 93t-66 35h-151v163h266q147 0 224 -80t77 -211v-710q0 -131 -77 -211t-224 -80h-233q-147 0 -224 80t-77 211v160q0 380 510 380zM422 483v-201q0 -58 25 -88t67.5 -30t67.5 30t25 88v422q-185 0 -185 -221zM1023 1209v-140l-571 -188v140z" />
    <glyph glyph-name="ntilde" unicode="&#xf1;" 
d="M932 702v-702h-325v712q0 78 -30 113t-80 35t-70 -25v-835h-326v1023h386q261 0 353 -95t92 -226zM399 1207q-57 0 -67 -70h-136q0 246 215 246q57 0 125 -34.5t99 -34.5q57 0 67 69h136q0 -246 -215 -246q-57 0 -125 35t-99 35z" />
    <glyph glyph-name="ograve" unicode="&#xf2;" 
d="M932 292q0 -131 -77 -211t-224 -80h-233q-147 0 -224 80t-77 211v440q0 131 77 211t224 80h233q147 0 224 -80t77 -211v-440zM607 742q0 58 -25 88t-67.5 30t-67.5 -30t-25 -88v-450q0 -58 25 -93t67.5 -35t67.5 35t25 93v450zM445 1159.5q-69 22.5 -129 88.5l-127 133
h313l175 -244h-82q-81 0 -150 22.5z" />
    <glyph glyph-name="oacute" unicode="&#xf3;" 
d="M932 292q0 -131 -77 -211t-224 -80h-233q-147 0 -224 80t-77 211v440q0 131 77 211t224 80h233q147 0 224 -80t77 -211v-440zM607 742q0 58 -25 88t-67.5 30t-67.5 -30t-25 -88v-450q0 -58 25 -93t67.5 -35t67.5 35t25 93v450zM433 1137h-81l174 244h314l-127 -133
q-60 -66 -129 -88.5t-151 -22.5z" />
    <glyph glyph-name="ocircumflex" unicode="&#xf4;" 
d="M932 292q0 -131 -77 -211t-224 -80h-233q-147 0 -224 80t-77 211v440q0 131 77 211t224 80h233q147 0 224 -80t77 -211v-440zM607 742q0 58 -25 88t-67.5 30t-67.5 -30t-25 -88v-450q0 -58 25 -93t67.5 -35t67.5 35t25 93v450zM209 1137l222 246h53q96 0 143 -43
l194 -203h-243l-86 80h-9l-78 -80h-196z" />
    <glyph glyph-name="otilde" unicode="&#xf5;" 
d="M932 292q0 -131 -77 -211t-224 -80h-233q-147 0 -224 80t-77 211v440q0 131 77 211t224 80h233q147 0 224 -80t77 -211v-440zM607 742q0 58 -25 88t-67.5 30t-67.5 -30t-25 -88v-450q0 -58 25 -93t67.5 -35t67.5 35t25 93v450zM397 1207q-57 0 -67 -70h-136
q0 246 215 246q57 0 125 -34.5t99 -34.5q57 0 67 69h136q0 -246 -215 -246q-57 0 -125 35t-99 35z" />
    <glyph glyph-name="odieresis" unicode="&#xf6;" 
d="M932 292q0 -131 -77 -211t-224 -80h-233q-147 0 -224 80t-77 211v440q0 131 77 211t224 80h233q147 0 224 -80t77 -211v-440zM607 742q0 58 -25 88t-67.5 30t-67.5 -30t-25 -88v-450q0 -58 25 -93t67.5 -35t67.5 35t25 93v450zM128 1137v205h326v-205h-326zM576 1137v205
h326v-205h-326z" />
    <glyph glyph-name="divide" unicode="&#xf7;" horiz-adv-x="1101" 
d="M997 605v-186h-899v186h899zM385 101v205h326v-205h-326zM385 718v205h326v-205h-326z" />
    <glyph glyph-name="oslash" unicode="&#xf8;" 
d="M843 943q77 -80 77 -211v-440q0 -131 -77 -211t-224 -80h-233q-147 0 -224 80t-77 211v440q0 131 77 211t224 80h233q147 0 224 -80zM570 199q25 35 25 93v450q0 58 -25 88t-67.5 30t-67.5 -30t-25 -88v-450q0 -58 25 -93t67.5 -35t67.5 35zM809 1023h126l-740 -1022
h-126z" />
    <glyph glyph-name="ugrave" unicode="&#xf9;" 
d="M101 1023h325v-712q0 -78 30 -113t80 -35t70 25v835h326v-1023h-386q-261 0 -353 95t-92 226v702zM447 1159.5q-69 22.5 -129 88.5l-127 133h313l175 -244h-82q-81 0 -150 22.5z" />
    <glyph glyph-name="uacute" unicode="&#xfa;" 
d="M101 1023h325v-712q0 -78 30 -113t80 -35t70 25v835h326v-1023h-386q-261 0 -353 95t-92 226v702zM435 1137h-81l174 244h314l-127 -133q-60 -66 -129 -88.5t-151 -22.5z" />
    <glyph glyph-name="ucircumflex" unicode="&#xfb;" 
d="M101 1023h325v-712q0 -78 30 -113t80 -35t70 25v835h326v-1023h-386q-261 0 -353 95t-92 226v702zM211 1137l222 246h53q96 0 143 -43l194 -203h-243l-86 80h-9l-78 -80h-196z" />
    <glyph glyph-name="udieresis" unicode="&#xfc;" 
d="M101 1023h325v-712q0 -78 30 -113t80 -35t70 25v835h326v-1023h-386q-261 0 -353 95t-92 226v702zM130 1137v205h326v-205h-326zM578 1137v205h326v-205h-326z" />
    <glyph glyph-name="yacute" unicode="&#xfd;" 
d="M422 1024v-732q0 -58 25 -93t68 -35q92 0 92 128v732h325v-1107h-2q-11 -110 -81.5 -192.5t-221.5 -82.5h-473v183h323q70 0 97.5 27.5t31.5 70.5v78h-208q-147 0 -224 80t-77 211v732h325zM433 1137h-81l174 244h314l-127 -133q-60 -66 -129 -88.5t-151 -22.5z" />
    <glyph glyph-name="thorn" unicode="&#xfe;" 
d="M607 292v450q0 58 -25 88t-67.5 30t-67.5 -30t-25 -88v-450q0 -58 25 -93t67.5 -35t67.5 35t25 93zM423 0v-358h-326v1740h325v-359h209q147 0 224 -80t77 -211v-440q0 -131 -79 -211.5t-198 -80.5h-232z" />
    <glyph glyph-name="ydieresis" unicode="&#xff;" 
d="M422 1024v-732q0 -58 25 -93t68 -35q92 0 92 128v732h325v-1107h-2q-11 -110 -81.5 -192.5t-221.5 -82.5h-473v183h323q70 0 97.5 27.5t31.5 70.5v78h-208q-147 0 -224 80t-77 211v732h325zM128 1137v205h326v-205h-326zM576 1137v205h326v-205h-326z" />
    <glyph glyph-name="dotlessi" unicode="&#x131;" horiz-adv-x="525" 
d="M427 1023v-1023h-326v1023h326z" />
    <glyph glyph-name="Lslash" unicode="&#x141;" horiz-adv-x="899" 
d="M446 698v-387q0 -58 25 -88t75 -30h313v-193h-463q-141 0 -208 75t-67 216v252l-98 -47v209l98 47v630h325v-475l160 77v-209z" />
    <glyph glyph-name="lslash" unicode="&#x142;" horiz-adv-x="700" 
d="M466 698v-377q0 -58 30 -88t100 -30h123l-20 -203h-263q-151 0 -223 80t-72 221v242l-98 -47v209l98 47v630h325v-475l160 77v-209z" />
    <glyph glyph-name="OE" unicode="&#x152;" horiz-adv-x="1514" 
d="M687 332v729q0 68 -35 113t-97.5 45t-97.5 -45t-35 -113v-729q0 -68 35 -118t97.5 -50t97.5 50t35 118zM398 1q-147 0 -224 80t-77 211v799q0 131 77 211t224 80h1070v-193h-453v-371h403v-173h-403v-334q0 -58 25 -88t75 -30h353v-193z" />
    <glyph glyph-name="oe" unicode="&#x153;" horiz-adv-x="1500" 
d="M607 292v450q0 58 -25 88t-67.5 30t-67.5 -30t-25 -88v-450q0 -58 25 -93t67.5 -35t67.5 35t25 93zM1125 742q0 58 -25 88t-67.5 30t-67.5 -30t-25 -88v-154q185 0 185 154zM774 46q-61 -45 -143 -45h-233q-147 0 -224 80t-77 211v440q0 131 77 211t224 80h233
q82 0 143 -45q60 45 142 45h233q147 0 224 -80t77 -211q0 -272 -510 -272v-168q0 -58 25 -93t67.5 -35t67.5 35t25 93v58h325v-58q0 -131 -77 -211t-224 -80h-233q-82 0 -142 45z" />
    <glyph glyph-name="Scaron" unicode="&#x160;" horiz-adv-x="1101" 
d="M97 1014v77q0 131 77 211t224 80h313q147 0 224 -80t77 -211v-130h-325v110q0 68 -35 108t-97.5 40t-97.5 -40t-35 -108v-115q0 -93 117 -135l252 -90q221 -67 221 -287v-152q0 -131 -77 -211t-224 -80h-313q-147 0 -224 80t-77 211v170h325v-140q0 -68 35 -113t97.5 -45
t97.5 45t35 113v130q0 113 -113 152l-256 88q-221 78 -221 322zM861 1743l-222 -246h-53q-96 0 -143 43l-194 203h243l86 -80h9l78 80h196z" />
    <glyph glyph-name="scaron" unicode="&#x161;" 
d="M97 762q0 111 77 186t224 75h233q147 0 224 -80t77 -211v-58h-325v68q0 58 -25 88t-67.5 30t-67.5 -30t-25 -88q0 -97 112 -132l143 -45q255 -80 255 -283q0 -121 -77 -201t-224 -80h-233q-147 0 -224 80t-77 211v58h325v-58q0 -58 25 -93t67.5 -35t67.5 35t25 93
q0 115 -112 150l-143 45q-255 80 -255 275zM821 1383l-222 -246h-53q-96 0 -143 43l-194 203h243l86 -80h9l78 80h196z" />
    <glyph glyph-name="Ydieresis" unicode="&#x178;" horiz-adv-x="1131" 
d="M426 492l-395 891h352l246 -594h13l234 594h246l-370 -886v-497h-326v492zM190 1497v205h326v-205h-326zM638 1497v205h326v-205h-326z" />
    <glyph glyph-name="Zcaron" unicode="&#x17d;" horiz-adv-x="1051" 
d="M77 1v50q0 70 52 199l376 812q26 62 26 88q-1 23 -25 36.5t-78 13.5h-340v183h905l-449 -1061q-25 -61 -25 -87q0 -24 19 -37.5t62 -13.5h372v-183h-895zM841 1743l-222 -246h-53q-96 0 -143 43l-194 203h243l86 -80h9l78 80h196z" />
    <glyph glyph-name="zcaron" unicode="&#x17e;" horiz-adv-x="1021" 
d="M588.5 197.5q17.5 -13.5 47.5 -13.5h323v-183h-892l366 722q24 42 24 68q-1 23 -23.5 36.5t-62.5 13.5h-303v183h892l-366 -722q-23 -41 -23 -67q0 -24 17.5 -37.5zM820 1383l-222 -246h-53q-96 0 -143 43l-194 203h243l86 -80h9l78 80h196z" />
    <glyph glyph-name="florin" unicode="&#x192;" horiz-adv-x="901" 
d="M854 1023v-183h-238v-565h-2q-11 -110 -81.5 -192.5t-221.5 -82.5h-263v183h113q70 0 97.5 27.5t31.5 70.5v559h-187v183h187v78q0 141 77 211t208 70h279v-183h-139q-50 0 -75 -20t-25 -78v-77h1v-1h238z" />
    <glyph glyph-name="circumflex" unicode="&#x2c6;" horiz-adv-x="1024" 
d="M196 1137l222 246h53q96 0 143 -43l194 -203h-243l-86 80h-9l-78 -80h-196z" />
    <glyph glyph-name="caron" unicode="&#x2c7;" horiz-adv-x="1024" 
d="M808 1383l-222 -246h-53q-96 0 -143 43l-194 203h243l86 -80h9l78 80h196z" />
    <glyph glyph-name="u02C9" unicode="&#x2c9;" horiz-adv-x="801" 
d="M702 1326v-226h-604v226h604z" />
    <glyph glyph-name="breve" unicode="&#x2d8;" horiz-adv-x="1024" 
d="M642 1383h136q0 -246 -279 -246q-280 0 -280 246h136q10 -69 144 -69q133 0 143 69z" />
    <glyph glyph-name="dotaccent" unicode="&#x2d9;" horiz-adv-x="371" 
d="M51 1138v174h277v-174h-277z" />
    <glyph glyph-name="ring" unicode="&#x2da;" horiz-adv-x="1024" 
d="M459 1083q-89 0 -152 63t-63 152t63 151.5t152 62.5t151.5 -62.5t62.5 -151.5t-62.5 -152t-151.5 -63zM513.5 1243q22.5 23 22.5 55t-22.5 54.5t-54.5 22.5t-55 -22.5t-23 -54.5t23 -55t55 -23t54.5 23z" />
    <glyph glyph-name="ogonek" unicode="&#x2db;" horiz-adv-x="1024" 
d="M573.5 -197q22.5 -25 66.5 -25h85l-20 -136h-85q-129 0 -187.5 49.5t-58.5 129.5q0 55 34 102t91 78h135q-48 -48 -65.5 -78t-17.5 -62q0 -33 22.5 -58z" />
    <glyph glyph-name="tilde" unicode="&#x2dc;" horiz-adv-x="1024" 
d="M379 1207q-57 0 -67 -70h-136q0 246 215 246q57 0 125 -34.5t99 -34.5q57 0 67 69h136q0 -246 -215 -246q-57 0 -125 35t-99 35z" />
    <glyph glyph-name="hungarumlaut" unicode="&#x2dd;" horiz-adv-x="858" 
d="M81 1137h-81l174 244h314l-127 -133q-60 -66 -129 -88.5t-151 -22.5zM436 1137h-81l174 244h314l-127 -133q-60 -66 -129 -88.5t-151 -22.5z" />
    <glyph glyph-name="endash" unicode="&#x2013;" horiz-adv-x="1499" 
d="M1413 605v-186h-1315v186h1315z" />
    <glyph glyph-name="emdash" unicode="&#x2014;" horiz-adv-x="2199" 
d="M2107 605v-186h-2009v186h2009z" />
    <glyph glyph-name="quoteleft" unicode="&#x2018;" horiz-adv-x="525" 
d="M427 1292v-455h-326v207q0 123 81.5 177t244.5 71z" />
    <glyph glyph-name="quoteright" unicode="&#x2019;" horiz-adv-x="525" 
d="M101 837v455h326v-207q0 -123 -81.5 -177t-244.5 -71z" />
    <glyph glyph-name="quotesinglbase" unicode="&#x201a;" horiz-adv-x="525" 
d="M101 -249v455h326v-207q0 -123 -81.5 -177t-244.5 -71z" />
    <glyph glyph-name="quotedblleft" unicode="&#x201c;" horiz-adv-x="899" 
d="M427 1292v-455h-326v207q0 123 81.5 177t244.5 71zM843 1292v-455h-326v207q0 123 81.5 177t244.5 71z" />
    <glyph glyph-name="quotedblright" unicode="&#x201d;" horiz-adv-x="899" 
d="M101 837v455h326v-207q0 -123 -81.5 -177t-244.5 -71zM517 837v455h326v-207q0 -123 -81.5 -177t-244.5 -71z" />
    <glyph glyph-name="quotedblbase" unicode="&#x201e;" horiz-adv-x="899" 
d="M101 -249v455h326v-207q0 -123 -81.5 -177t-244.5 -71zM517 -249v455h326v-207q0 -123 -81.5 -177t-244.5 -71z" />
    <glyph glyph-name="dagger" unicode="&#x2020;" horiz-adv-x="1101" 
d="M696 1006h301v-226h-301v-780h-297v780h-301v226h301v287h297v-287z" />
    <glyph glyph-name="daggerdbl" unicode="&#x2021;" horiz-adv-x="1101" 
d="M399 780h-301v226h301v287h297v-287h301v-226h-301v-267h301v-226h-301v-287h-297v287h-301v226h301v267z" />
    <glyph glyph-name="bullet" unicode="&#x2022;" horiz-adv-x="500" 
d="M61 534v343h387v-343h-387z" />
    <glyph glyph-name="ellipsis" unicode="&#x2026;" horiz-adv-x="1401" 
d="M101 1v205h326v-205h-326zM532 1v205h326v-205h-326zM962 1v205h326v-205h-326z" />
    <glyph glyph-name="perthousand" unicode="&#x2030;" horiz-adv-x="1600" 
d="M721 1293h225l-519 -1292h-225zM1043 546q41 -41 41 -148v-209q0 -107 -41 -148t-119 -41h-86q-78 0 -118.5 41t-40.5 148v209q0 107 40.5 148t118.5 41h86q78 0 119 -41zM914 171q12 26 12 68v118q0 42 -12 64t-33 22t-33 -22t-12 -64v-118q0 -42 12 -68t33 -26t33 26z
M430.5 1252q40.5 -41 40.5 -148v-209q0 -107 -40.5 -148t-119.5 -41h-85q-78 0 -119 41t-41 148v209q0 107 41 148t119 41h85q79 0 119.5 -41zM301.5 876.5q12.5 26.5 12.5 67.5v119q0 42 -12.5 63.5t-33 21.5t-32.5 -21.5t-12 -63.5v-119q0 -41 12 -67.5t32.5 -26.5
t33 26.5zM1487 546q41 -41 41 -148v-209q0 -107 -41 -148t-119 -41h-85q-79 0 -119.5 41t-40.5 148v209q0 107 40.5 148t119.5 41h85q78 0 119 -41zM1358 171q12 26 12 68v118q0 42 -12 64t-32.5 22t-33 -22t-12.5 -64v-118q0 -42 12.5 -68t33 -26t32.5 26z" />
    <glyph glyph-name="guilsinglleft" unicode="&#x2039;" horiz-adv-x="900" 
d="M548 143l-439 368v58q0 102 146 231l293 247h290l-372 -446v-13l372 -445h-290z" />
    <glyph glyph-name="guilsinglright" unicode="&#x203a;" horiz-adv-x="900" 
d="M379 1047l439 -368v-58q0 -102 -146 -231l-293 -247h-290l372 446v13l-372 445h290z" />
    <glyph glyph-name="Euro" unicode="&#x20ac;" horiz-adv-x="1166" 
d="M509 529v-197q0 -68 35 -118t97.5 -50t97.5 50t35 118v110h325v-150q0 -131 -77 -211t-224 -80h-313q-147 0 -224 80t-77 211v237h-130v148h130v74h-130v148h130v192q0 131 77 211t224 80h313q147 0 224 -80t77 -211v-120h-325v90q0 68 -35 113t-97.5 45t-97.5 -45
t-35 -113v-162h261v-148h-261v-74h261v-148h-261z" />
    <glyph glyph-name="trademark" unicode="&#x2122;" horiz-adv-x="1165" 
d="M496 1383q0 -42 -25 -66t-69 -24h-63v-363h-146v363h-157q0 42 25 66t69 24h366zM1098 930h-147v222l-154 -222l-155 222v-222h-116v453h49q86 0 126 -64l114 -159l107 159q41 64 127 64h49v-453z" />
    <glyph glyph-name="minus" unicode="&#x2212;" horiz-adv-x="1101" 
d="M997 605v-186h-899v186h899z" />
    <glyph glyph-name="uFB01" unicode="&#xf001;" horiz-adv-x="1101" 
d="M614 1199h-88q-50 0 -75 -20t-25 -78v-78h582v-1023h-326v840h-256v-840h-325v1101q0 141 77 211t208 70h311q311 0 311 -170v-70h-326q0 57 -68 57z" />
    <glyph glyph-name="uFB01" unicode="&#xfb01;" horiz-adv-x="1101" 
d="M614 1199h-88q-50 0 -75 -20t-25 -78v-78h582v-1023h-326v840h-256v-840h-325v1101q0 141 77 211t208 70h311q311 0 311 -170v-70h-326q0 57 -68 57z" />
    <glyph glyph-name="uFB02" unicode="&#xf002;" horiz-adv-x="1301" 
d="M712 1199h-186q-50 0 -75 -20t-25 -78v-78h189v-183h-189v-840h-325v1101q0 141 77 211t208 70h651v-1061q0 -58 30 -88t100 -30h103l-20 -203h-243q-151 0 -223 80t-72 221v898z" />
    <glyph glyph-name="uFB02" unicode="&#xfb02;" horiz-adv-x="1301" 
d="M712 1199h-186q-50 0 -75 -20t-25 -78v-78h189v-183h-189v-840h-325v1101q0 141 77 211t208 70h651v-1061q0 -58 30 -88t100 -30h103l-20 -203h-243q-151 0 -223 80t-72 221v898z" />
    </font>
</defs>
</svg>
